<?xml version="1.0" encoding="utf-8"?>
<!-- Generator: Adobe Illustrator 19.1.0, SVG Export Plug-In . SVG Version: 6.00 Build 0)  -->
<svg version="1.1" id="Layer_1" xmlns="http://www.w3.org/2000/svg" xmlns:xlink="http://www.w3.org/1999/xlink" x="0px" y="0px"
	 viewBox="0 0 80 80" style="enable-background:new 0 0 80 80;" xml:space="preserve">
<style type="text/css">
	.st0{fill:#FFFFFF;}
</style>
<path class="st0" d="M43.5,40.5L75.3,9c1-1,1-2.6,0-3.5c-1-1-2.6-1-3.5,0L40,37L8.5,5.2c-1-1-2.6-1-3.5,0c-1,1-1,2.6,0,3.5
	l31.5,31.7L4.7,72c-1,1-1,2.6,0,3.5c0.5,0.5,1.1,0.7,1.8,0.7c0.6,0,1.3-0.2,1.8-0.7L40,44l31.5,31.7c0.5,0.5,1.1,0.7,1.8,0.7
	c0.6,0,1.3-0.2,1.8-0.7c1-1,1-2.6,0-3.5L43.5,40.5z"/>
</svg>
