<?xml version="1.0" encoding="utf-8"?>
<!-- Generator: Adobe Illustrator 19.1.0, SVG Export Plug-In . SVG Version: 6.00 Build 0)  -->
<svg version="1.1" id="Layer_1" xmlns="http://www.w3.org/2000/svg" xmlns:xlink="http://www.w3.org/1999/xlink" x="0px" y="0px"
	 viewBox="0 0 80 80" style="enable-background:new 0 0 80 80;" xml:space="preserve">
<style type="text/css">
	.st0{fill:#FFFFFF;}
</style>
<g>
	<path class="st0" d="M30.9,28.4l0.1,0.8c0,0.5-0.1,0.8-0.4,1.1s-0.7,0.4-1.1,0.4h-0.8H12.4c-0.5,0-0.9-0.2-1.2-0.5
		c-0.3-0.3-0.5-0.7-0.5-1.2v-1.1c0.1-1.1,0.7-1.7,1.8-1.7h10.7L4.6,7.8c-1-1.1-1-2.2,0-3.2c0.5-0.5,1-0.7,1.6-0.7
		c0.6,0,1.1,0.2,1.6,0.7l18.7,18.6v-11c0-0.5,0.1-0.9,0.4-1.2c0.3-0.3,0.7-0.5,1.1-0.5h1.1c1.1,0.1,1.7,0.6,1.7,1.5L31,28.2
		L30.9,28.4z M31,50.6l-0.1,0.8l0.1,0.1l-0.1,16.2c0,0.9-0.6,1.5-1.7,1.5h-1.1c-0.5,0-0.8-0.2-1.1-0.5c-0.3-0.3-0.4-0.7-0.4-1.2v-11
		L7.8,75.2c-0.5,0.5-1,0.7-1.6,0.7c-0.6,0-1.1-0.2-1.5-0.7c-0.4-0.5-0.6-1-0.6-1.6C4,73,4.2,72.4,4.6,72l18.7-18.6H12.6
		c-1.1,0.1-1.7-0.5-1.8-1.7v-1.1c0-0.5,0.2-0.9,0.5-1.2c0.3-0.3,0.7-0.5,1.2-0.5L28.6,49l0.8-0.1c0.5,0,0.8,0.2,1.1,0.6
		C30.9,49.7,31,50.1,31,50.6z M75.4,72c1,1.1,1,2.2-0.1,3.2c-1.1,1-2.1,1-3.2,0L53.4,56.6l0.1,11c0,0.5-0.2,0.9-0.5,1.2
		c-0.3,0.3-0.7,0.5-1.2,0.5h-1.1c-1.1-0.1-1.7-0.6-1.7-1.5l-0.1-16.2l0.1-0.1l-0.1-0.8c0-0.5,0.1-0.8,0.4-1.1
		c0.4-0.4,0.7-0.6,1.1-0.6h1h16.2c0.5,0,0.9,0.2,1.2,0.5c0.3,0.3,0.5,0.7,0.5,1.2v1.1c-0.1,1.2-0.7,1.8-1.8,1.7H56.7L75.4,72z
		 M49,29.2l0.1-0.8L49,28.2l0.1-16.2c0-0.9,0.6-1.5,1.7-1.5H52c0.5,0,0.8,0.2,1.1,0.5c0.3,0.3,0.4,0.7,0.4,1.2v11L72.2,4.6
		c1-1,2.1-1,3.2,0c1.1,1,1.1,2.1,0.1,3.2L56.7,26.3h10.7c1.1,0,1.7,0.6,1.8,1.7v1.1c0,0.5-0.2,0.9-0.5,1.2c-0.3,0.3-0.7,0.5-1.2,0.5
		H51.4h-0.8c-0.5,0-0.8-0.1-1.1-0.4S49,29.7,49,29.2z"/>
</g>
</svg>
