<?xml version="1.0" encoding="utf-8"?>
<!-- Generator: Adobe Illustrator 19.1.0, SVG Export Plug-In . SVG Version: 6.00 Build 0)  -->
<svg version="1.1" id="Layer_1" xmlns="http://www.w3.org/2000/svg" xmlns:xlink="http://www.w3.org/1999/xlink" x="0px" y="0px"
	 viewBox="0 0 640.5 91.1" style="enable-background:new 0 0 640.5 91.1;" xml:space="preserve">
<style type="text/css">
	.st0{fill:none;stroke:#FFFFFF;stroke-width:4;stroke-miterlimit:10;}
</style>
<g>
	<g>
		<g>
			<path class="st0" d="M245.7,55.2h-17.4l8.6-27L245.7,55.2z M250,68.1l3.8,11.3H270l-24.7-66.5h-17.1l-23.8,66.5h16.2l3.6-11.3
				H250z M45.3,66.1V24.9h12.8V12.3H45.3H29.1H15.3v12.7h13.8v41.2H15.3v12.7h42.8V66.1H45.3z M625.2,78.9v-0.3v-14V11H611v53.7
				h-29.3V11h-14.3v53.7v14v0.3H625.2z M452.4,12.3h-15.2v37.6c0,10.3-4.7,16.5-12.3,16.5h-2.9c-8.1,0-13-6.4-13-16.5V12.3h-15.2
				v38.6c0,18.8,10.6,29.4,28.2,29.4h2.9c17.1,0,27.5-10.5,27.5-29.4V12.3z M491.2,46.2V26h28.5c5.7,0,9.1,3.7,9.1,9.8
				c0,6.6-3.5,10.4-9.1,10.4H491.2z M475,78.8h16.2V60h27.2l10.1,18.8h18.4l-12.1-22.6c7-4.2,11-11.4,11-20.5
				c0-13.8-10-23.4-26.1-23.4H475V78.8z M370.2,79.4v-9v-5.2V53.7V49v-7.1h-43.5v11.9h28v11.5h-49.4V27h64.9V12.9h-62.1h-18h-0.4
				v66.5h0.4h18H370.2z M183.7,78.8V40.2c0-18.8-10.6-29.4-28.2-29.4h-2.9c-8.6,0-15.5,2.7-20.2,7.7c-4.9-5-11.9-7.7-20.8-7.7h-2.8
				c-17.1,0-27.5,10.5-27.5,29.4v38.6h15.2V41.2c0-10.3,4.7-16.5,12.3-16.5h2.8c8.1,0,13,6.4,13,16.5v37.6h0.5h14.7h0.5V41.2
				c0-10.3,4.7-16.5,12.3-16.5h2.9c8.1,0,13,6.4,13,16.5v37.6H183.7z"/>
		</g>
	</g>
</g>
</svg>
