<svg id="Layer_1" xmlns="http://www.w3.org/2000/svg" viewBox="0 0 80 80"><style>.st0{fill:#fff}</style><path class="st0" d="M31.1 27.7c1 1 1 2.1 0 3.2S29 32 28 31L8.6 11.6v10.8c0 .5-.1.9-.4 1.2-.3.4-.7.5-1.2.5H5.8c-1.1 0-1.7-.5-1.7-1.4V5.6c0-.5.1-.8.3-1.1.3-.3.7-.5 1.2-.5h.8l16.2-.1c.5 0 .9.2 1.2.5.3.3.5.7.5 1.2v1.3c-.1 1.1-.7 1.6-1.8 1.5l-10.7.1 19.3 19.2zm0 21.3c1 1.1 1 2.1 0 3.2L11.8 71.3l10.7.1c1.1-.1 1.7.4 1.8 1.5v1.3c0 .5-.2.9-.5 1.2-.3.3-.7.5-1.2.5l-16.1-.1h-.9c-.5 0-.9-.1-1.3-.4-.2-.3-.3-.7-.3-1.1V57.1c0-.9.6-1.4 1.7-1.4H7c.5 0 .8.2 1.1.5.3.3.4.7.4 1.2v10.8L28 48.9c1-1 2-1 3.1.1zm18-18.2c-1.1-1.1-1.1-2.1-.1-3.2L68.3 8.5l-10.5-.1c-1.1.1-1.8-.4-2-1.5V5.6c.1-.5.3-.9.6-1.2.3-.3.7-.5 1.1-.5l16.2.1h.8c.5 0 .8.1 1.1.4s.4.7.4 1.1v17.1c0 .9-.6 1.4-1.7 1.4h-1.1c-.5 0-.9-.2-1.2-.5-.3-.3-.5-.7-.5-1.2l.1-10.8-19.3 19.4c-1 1-2.1 1-3.2-.1zm27 43.4c0 .5-.1.8-.3 1.1-.4.3-.8.4-1.3.4h-.8l-16.2.1c-.4 0-.7-.2-1.1-.5-.3-.3-.5-.7-.6-1.2v-1.3c.2-1.1.8-1.6 2-1.5l10.5-.1-19.2-19.1c-1-1-1-2.1.1-3.2s2.1-1.1 3.2-.1l19.4 19.3-.1-10.8c0-.5.2-.9.5-1.2.3-.3.7-.5 1.2-.5h1.1c1.1 0 1.7.5 1.7 1.4v17.2z"/></svg>