<svg xmlns="http://www.w3.org/2000/svg" viewBox="0 0 439.3 62"><path fill="transparent" stroke="#fff" stroke-width="3" d="M167.6 37.8h-12.1l6-18.9 6.1 18.9zm3 8.9l2.7 7.9h11.3L167.3 8.2h-11.9l-16.6 46.5H150l2.5-7.9h18.1zm-143-1.3V16.6h8.9V7.8H6.7v8.8h9.6v28.8H6.7v8.9h29.9v-8.9h-9zm405.1 8.9V6.9h-10v37.5h-20.5V6.9h-10v47.4h40.5zM312 7.8h-10.6v26.3c0 7.2-3.3 11.6-8.6 11.6h-2c-5.6 0-9.1-4.4-9.1-11.6V7.8h-10.6v26.9c0 13.1 7.4 20.5 19.7 20.5h2c11.9 0 19.2-7.4 19.2-20.5V7.8zm27 23.7V17.4h19.9c4 0 6.4 2.6 6.4 6.8 0 4.6-2.5 7.2-6.4 7.2H339zm-11.3 22.7H339V41.1h19l7 13.1h12.9l-8.4-15.8c4.9-2.9 7.7-8 7.7-14.3 0-9.6-7-16.3-18.3-16.3h-31.2v46.4zm-73.1.4V28.4h-30.4v8.3h19.5v8h-34.5V18.1h45.3V8.2h-56.2v46.5h56.3zm-130.3-.4V27.3c0-13.1-7.4-20.5-19.7-20.5h-2c-6 0-10.8 1.9-14.1 5.4-3.4-3.6-8.4-5.4-14.5-5.4h-2c-11.9 0-19.2 7.4-19.2 20.5v26.9h10.6V27.9c0-7.2 3.3-11.5 8.6-11.5h2c5.6 0 9.1 4.4 9.1 11.5v26.3H94V27.9c0-7.2 3.3-11.5 8.6-11.5h2c5.6 0 9.1 4.4 9.1 11.5v26.3h10.6z"/></svg>