<?xml version="1.0" encoding="utf-8"?>
<!-- Generator: Adobe Illustrator 19.1.0, SVG Export Plug-In . SVG Version: 6.00 Build 0)  -->
<svg version="1.1" id="Layer_1" xmlns="http://www.w3.org/2000/svg" xmlns:xlink="http://www.w3.org/1999/xlink" x="0px" y="0px"
	 viewBox="0 0 80 80" style="enable-background:new 0 0 80 80;" xml:space="preserve">
<style type="text/css">
	.st0{fill:#FFFFFF;}
</style>
<g>
	<path class="st0" d="M31.1,27.7c1,1,1,2.1,0,3.2c-1,1.1-2.1,1.1-3.1,0.1L8.6,11.6v10.8c0,0.5-0.1,0.9-0.4,1.2
		C7.9,24,7.5,24.1,7,24.1H5.8c-1.1,0-1.7-0.5-1.7-1.4V6.4V5.6c0-0.5,0.1-0.8,0.3-1.1C4.7,4.2,5.1,4,5.6,4h0.8l16.2-0.1
		c0.5,0,0.9,0.2,1.2,0.5c0.3,0.3,0.5,0.7,0.5,1.2v1.3c-0.1,1.1-0.7,1.6-1.8,1.5L11.8,8.5L31.1,27.7z M31.1,49c1,1.1,1,2.1,0,3.2
		L11.8,71.3l10.7,0.1c1.1-0.1,1.7,0.4,1.8,1.5v1.3c0,0.5-0.2,0.9-0.5,1.2c-0.3,0.3-0.7,0.5-1.2,0.5L6.5,75.8H5.6
		c-0.5,0-0.9-0.1-1.3-0.4c-0.2-0.3-0.3-0.7-0.3-1.1v-0.8V57.1c0-0.9,0.6-1.4,1.7-1.4H7c0.5,0,0.8,0.2,1.1,0.5
		c0.3,0.3,0.4,0.7,0.4,1.2v10.8L28,48.9C29,47.9,30,47.9,31.1,49z M49.1,30.8c-1.1-1.1-1.1-2.1-0.1-3.2L68.3,8.5L57.8,8.4
		c-1.1,0.1-1.8-0.4-2-1.5V5.6c0.1-0.5,0.3-0.9,0.6-1.2c0.3-0.3,0.7-0.5,1.1-0.5L73.7,4h0.8c0.5,0,0.8,0.1,1.1,0.4s0.4,0.7,0.4,1.1
		v0.8v16.3c0,0.9-0.6,1.4-1.7,1.4h-1.1c-0.5,0-0.9-0.2-1.2-0.5c-0.3-0.3-0.5-0.7-0.5-1.2l0.1-10.8L52.3,30.9
		C51.3,31.9,50.2,31.9,49.1,30.8z M76.1,74.2c0,0.5-0.1,0.8-0.3,1.1c-0.4,0.3-0.8,0.4-1.3,0.4h-0.8l-16.2,0.1
		c-0.4,0-0.7-0.2-1.1-0.5c-0.3-0.3-0.5-0.7-0.6-1.2v-1.3c0.2-1.1,0.8-1.6,2-1.5l10.5-0.1L49.1,52.1c-1-1-1-2.1,0.1-3.2
		c1.1-1.1,2.1-1.1,3.2-0.1l19.4,19.3l-0.1-10.8c0-0.5,0.2-0.9,0.5-1.2c0.3-0.3,0.7-0.5,1.2-0.5h1.1c1.1,0,1.7,0.5,1.7,1.4v16.3V74.2
		z"/>
</g>
</svg>
