<?xml version="1.0" encoding="utf-8"?>
<!-- Generator: Adobe Illustrator 19.1.0, SVG Export Plug-In . SVG Version: 6.00 Build 0)  -->
<svg version="1.1" id="Layer_1" xmlns="http://www.w3.org/2000/svg" xmlns:xlink="http://www.w3.org/1999/xlink" x="0px" y="0px"
	 viewBox="0 0 439.3 62" style="enable-background:new 0 0 439.3 62;" xml:space="preserve">
<g>
	<path fill="transparent" stroke="#fff" stroke-width="3" d="M167.6,37.8h-12.1l6-18.9L167.6,37.8z M170.6,46.7l2.7,7.9h11.3L167.3,8.2h-11.9l-16.6,46.5H150l2.5-7.9H170.6z M27.6,45.4
		V16.6h8.9V7.8h-8.9H16.3H6.7v8.8h9.6v28.8H6.7v8.9h29.9v-8.9H27.6z M432.7,54.3v-0.2v-9.7V6.9h-10v37.5h-20.5V6.9h-10v37.5v9.7v0.2
		H432.7z M312,7.8h-10.6v26.3c0,7.2-3.3,11.6-8.6,11.6h-2c-5.6,0-9.1-4.4-9.1-11.6V7.8h-10.6v26.9c0,13.1,7.4,20.5,19.7,20.5h2
		c11.9,0,19.2-7.4,19.2-20.5V7.8z M339,31.5V17.4h19.9c4,0,6.4,2.6,6.4,6.8c0,4.6-2.5,7.2-6.4,7.2H339z M327.7,54.2H339V41.1h19
		l7,13.1h12.9l-8.4-15.8c4.9-2.9,7.7-8,7.7-14.3c0-9.6-7-16.3-18.3-16.3h-31.2V54.2z M254.6,54.6v-6.3v-3.6v-8v-3.3v-5h-30.4v8.3
		h19.5v8h-34.5V18.1h45.3V8.2h-43.4h-12.5h-0.3v46.5h0.3h12.5H254.6z M124.3,54.2V27.3c0-13.1-7.4-20.5-19.7-20.5h-2
		c-6,0-10.8,1.9-14.1,5.4C85.1,8.6,80.1,6.8,74,6.8h-2c-11.9,0-19.2,7.4-19.2,20.5v26.9h10.6V27.9c0-7.2,3.3-11.5,8.6-11.5h2
		c5.6,0,9.1,4.4,9.1,11.5v26.3h0.3h10.3H94V27.9c0-7.2,3.3-11.5,8.6-11.5h2c5.6,0,9.1,4.4,9.1,11.5v26.3H124.3z"/>
</g>
</svg>
